<?xml version="1.0" standalone="no"?>
<!DOCTYPE svg PUBLIC "-//W3C//DTD SVG 20010904//EN"
 "http://www.w3.org/TR/2001/REC-SVG-20010904/DTD/svg10.dtd">
<svg version="1.0" xmlns="http://www.w3.org/2000/svg"
 width="1280.000000pt" height="1280.000000pt" viewBox="0 0 1280.000000 1280.000000"
 preserveAspectRatio="xMidYMid meet">
<metadata>
Created by potrace 1.16, written by Peter Selinger 2001-2019
</metadata>
<g transform="translate(0.000000,1280.000000) scale(0.100000,-0.100000)"
fill="#000000" stroke="none">
<path d="M5156 11669 c-86 -12 -234 -61 -304 -101 -30 -17 -86 -57 -125 -88
-40 -32 -1082 -1070 -2317 -2306 -2490 -2494 -2299 -2292 -2372 -2504 -32 -93
-33 -98 -33 -270 0 -172 1 -177 33 -270 73 -213 -123 -6 2407 -2536 1825
-1826 2295 -2291 2354 -2329 142 -93 296 -138 471 -138 336 0 627 180 770 478
70 145 85 212 85 380 -1 114 -5 154 -23 218 -30 106 -72 196 -129 275 -29 41
-627 645 -1546 1562 l-1499 1495 4578 5 4579 5 80 22 c286 81 502 284 596 563
29 85 33 110 37 235 4 159 -8 236 -57 360 -109 271 -355 469 -646 520 -78 13
-612 15 -4629 15 l-4541 1 1501 1497 c910 909 1519 1524 1547 1564 135 189
187 440 139 672 -39 188 -151 370 -302 493 -171 140 -433 212 -654 182z"/>
</g>
</svg>
