<?xml version="1.0" standalone="no"?>
<!DOCTYPE svg PUBLIC "-//W3C//DTD SVG 20010904//EN"
 "http://www.w3.org/TR/2001/REC-SVG-20010904/DTD/svg10.dtd">
<svg version="1.0" xmlns="http://www.w3.org/2000/svg"
 width="1280.000000pt" height="1280.000000pt" viewBox="0 0 1280.000000 1280.000000"
 preserveAspectRatio="xMidYMid meet">
<metadata>
Created by potrace 1.16, written by Peter Selinger 2001-2019
</metadata>
<g transform="translate(0.000000,1280.000000) scale(0.100000,-0.100000)"
fill="#000000" stroke="none">
<path d="M7425 11670 c-161 -22 -320 -89 -435 -183 -137 -112 -252 -290 -297
-462 -27 -106 -25 -324 5 -428 30 -106 72 -196 129 -275 29 -41 627 -645 1546
-1562 l1499 -1495 -4578 -5 -4579 -5 -80 -22 c-286 -81 -502 -284 -596 -563
-29 -85 -33 -110 -37 -235 -4 -159 8 -236 57 -360 109 -271 355 -469 646 -520
78 -13 612 -15 4629 -15 l4541 -1 -1501 -1497 c-910 -909 -1519 -1524 -1547
-1564 -135 -189 -187 -440 -139 -672 39 -188 151 -370 302 -493 282 -229 702
-249 1011 -48 59 38 529 503 2354 2329 2530 2530 2334 2323 2407 2536 32 93
33 98 33 270 0 172 -1 177 -33 270 -73 213 123 6 -2407 2536 -2403 2404 -2335
2339 -2487 2401 -139 56 -314 81 -443 63z"/>
</g>
</svg>
