<svg xmlns="http://www.w3.org/2000/svg" version="1.0" width="1280.000000" height="1280.000000" preserveAspectRatio="xMidYMid meet"><rect id="backgroundrect" width="100%" height="100%" x="0" y="0" fill="none" stroke="none"/>
<metadata>
Created by potrace 1.16, written by Peter Selinger 2001-2019
</metadata>

<g class="currentLayer" style=""><title>Layer 1</title><g transform="translate(0,1280) scale(0.10000000149011612,-0.10000000149011612) " fill="#ffffff" stroke="#ffffff" id="svg_1" class="selected" stroke-opacity="1" fill-opacity="1">
<path d="M3412 9889 c-116 -15 -202 -53 -302 -135 -36 -29 -724 -713 -1530 -1521 -1560 -1563 -1514 -1514 -1558 -1653 -24 -77 -24 -283 0 -360 44 -139 -2 -90 1558 -1653 806 -808 1494 -1492 1530 -1521 121 -99 225 -137 381 -138 257 -1 472 152 553 393 62 184 36 368 -72 525 -23 34 -455 473 -1001 1019 l-961 960 5157 5 c4997 5 5160 6 5213 24 172 58 293 161 365 311 46 97 58 162 53 286 -5 115 -26 186 -80 277 -67 110 -195 210 -328 255 l-65 22 -5158 5 -5157 5 961 960 c546 546 978 985 1001 1019 108 157 134 342 72 524 -89 266 -349 427 -632 391z" id="svg_2" stroke="#ffffff" stroke-opacity="1" fill="#ffffff" fill-opacity="1"/>
</g></g></svg>